<svg xmlns="http://www.w3.org/2000/svg" viewBox="0 0 242.667 92" height="92" width="242.667">
  <path d="M36.496 64.127c-1.212 1.212-3.178 1.212-4.39 0-1.213-1.212-1.213-3.178 0-4.39 3.334-3.335 5.478-7.6 6.145-12.262H16.74c-1.715 0-3.105-1.39-3.105-3.105 0-1.714 1.39-3.104 3.105-3.104h21.507c-.46-3.19-1.63-6.26-3.414-8.944-2.828-4.25-1.693-10.043 2.603-12.9 4.29-2.855 10.08-1.638 12.9 2.6 4.41 6.626 6.76 14.39 6.76 22.348 0 8.696-2.856 17.237-8.07 24.194-1.016 1.355-.736 3.34.628 4.363 1.37 1.025 3.346.73 4.363-.628 6.053-8.08 9.29-17.84 9.29-27.93 0-10.58-3.582-20.84-10.192-29.1-3.195-4-2.585-9.84 1.455-13.07 4.05-3.24 9.87-2.54 13.068 1.45 9.238 11.55 14.295 25.92 14.295 40.71 0 17.25-6.893 33.89-19.095 46.1-1.212 1.21-3.178 1.21-4.39 0-1.212-1.22-1.212-3.18 0-4.39 11.084-11.09 17.276-26.04 17.276-41.71 0-13.4-4.54-26.39-12.912-36.86-1.058-1.32-3.054-1.55-4.385-.49-1.34 1.07-1.546 3.06-.486 4.38 7.48 9.35 11.58 20.98 11.58 32.95 0 11.38-3.73 22.536-10.55 31.64-3.07 4.097-8.87 4.97-13.02 1.865-4.15-3.11-4.93-8.924-1.86-13.02 4.45-5.93 6.81-13.07 6.81-20.48 0-6.724-1.99-13.33-5.72-18.928-.95-1.44-2.87-1.81-4.31-.858-1.44.96-1.8 2.893-.85 4.317 7.32 11.014 5.92 25.798-3.51 35.228zm101.22-14.18c1.052 0 1.95-.8 2.05-1.865.443-4.62-1.826-8.952-6.84-9.425-.353-.034-.635-.05-.946-.05-2.476 0-4.708 1.08-6.308 2.878-1.62 1.823-2.457 4.197-2.457 6.587 0 2.598.805 5.046 2.463 6.973 1.598 1.858 3.825 3.007 6.302 3.007 3.933 0 6.556-1.74 6.563-1.745.95-.632 1.205-1.915.573-2.862-.632-.95-1.915-1.206-2.864-.574-.004.01-1.585 1.05-4.272 1.05-1.223 0-2.347-.59-3.172-1.55-.567-.66-1-1.48-1.24-2.41zm-2.08-3.968h-7.89c.64-1.87 2.107-3.25 4.234-3.25 2.285 0 3.287 1.14 3.656 3.24zm106.348 10.01c0 1.14-.924 2.06-2.064 2.06-1.14 0-2.065-.93-2.065-2.07V41.11l-5.75 9.776c-.384.696-1.052 1.034-1.79 1.036-.738.003-1.378-.35-1.786-1.03l-5.76-9.78v14.88c0 1.14-.93 2.065-2.07 2.065-1.14 0-2.07-.924-2.07-2.064V33.546c0-1.14.92-2.064 2.06-2.064.82 0 1.53.482 1.86 1.18l7.74 13.154 7.74-13.153c.33-.7 1.04-1.18 1.86-1.18 1.14 0 2.064.923 2.064 2.063zm-39.527-17.42c-.566.98-1.824 1.32-2.808.75-.99-.57-1.33-1.83-.76-2.81.01-.01 2.84-5.04 7.94-5.04 4.69 0 8.22 2.58 8.22 8.07 0 2.77-1.79 5.22-3.44 6.94l-7.12 7.43h8.29c1.14 0 2.06.92 2.06 2.06s-.93 2.063-2.07 2.063l-13.123-.004c-1.79 0-2.75-2.17-1.488-3.488l10.47-10.927c1.24-1.29 2.29-2.6 2.29-4.47 0-1.864-.84-3.56-4.11-3.56-2.71 0-4.38 2.95-4.384 2.96zM99.767 58.05c-1.14 0-2.065-.925-2.065-2.065V33.54c0-1.14.924-2.064 2.064-2.064 1.14 0 2.065.925 2.065 2.065v20.39h12.83V33.55c0-1.14.93-2.066 2.07-2.066s2.07.925 2.07 2.065v20.38h2.2c1.14 0 2.07.92 2.07 2.06V64c0 1.142-.92 2.07-2.06 2.07s-2.07-.928-2.07-2.07v-5.944c-6.38 0-12.76-.004-19.14-.004zM182.412 64c0 1.14-.924 2.065-2.065 2.065-1.14 0-2.064-.925-2.064-2.065V44.69c0-1.725.69-3.275 1.867-4.392 1.126-1.068 2.677-1.72 4.462-1.72 3.028 0 5.333.516 7.463 2.908 1.518 1.707 2.456 4.057 2.456 6.715 0 2.66-.94 5.08-2.46 6.85-1.59 1.86-3.82 3.01-6.3 3.01-1.3 0-2.4-.13-3.35-.38zm0-19.31v8.58c.98.558 2.252.652 3.354.652 1.222 0 2.345-.594 3.172-1.554.903-1.05 1.46-2.523 1.46-4.167 0-1.6-.536-2.99-1.407-3.97-1.31-1.48-2.67-1.52-4.38-1.52-.68 0-1.24.22-1.62.58-.36.35-.57.84-.57 1.41zm-8.13-6.058c1.136 0 2.058.913 2.058 2.04 0 1.124-.92 2.037-2.057 2.037h-3.5v13.27c0 1.14-.927 2.07-2.068 2.07-1.143 0-2.07-.93-2.07-2.07V42.71h-3.5c-1.136 0-2.058-.914-2.058-2.04 0-1.125.922-2.038 2.058-2.038h11.138zm-31.3 2.04c0-1.14.925-2.066 2.065-2.066s2.064.925 2.064 2.065v5.6h7.46v-5.6c0-1.14.93-2.06 2.07-2.06 1.15 0 2.07.93 2.07 2.07V56c0 1.14-.92 2.066-2.06 2.066-1.14 0-2.06-.925-2.06-2.065v-5.6h-7.45V56c0 1.14-.92 2.066-2.06 2.066-1.14 0-2.066-.93-2.066-2.07v-7.66zm-115.267-7.28c1.213 1.214 1.213 3.18 0 4.39-1.212 1.214-3.178 1.214-4.39 0-1.77-1.77-4.082-2.726-6.585-2.726-5.144 0-9.314 4.17-9.314 9.313 0 5.14 4.17 9.31 9.314 9.31 2.503 0 4.815-.96 6.585-2.73 1.212-1.21 3.178-1.21 4.39 0 1.213 1.21 1.213 3.18 0 4.39-2.887 2.88-6.893 4.54-10.975 4.54-8.573 0-15.523-6.95-15.523-15.53s6.95-15.52 15.523-15.52c4.082 0 8.088 1.66 10.975 4.54" fill="#ffffff"/>
</svg>
